<?xml version="1.0" encoding="UTF-8"?>
<svg width="235px" height="358px" viewBox="0 0 235 358" version="1.1" xmlns="http://www.w3.org/2000/svg" xmlns:xlink="http://www.w3.org/1999/xlink">
    <!-- Generator: Sketch 43.2 (39069) - http://www.bohemiancoding.com/sketch -->
    <title>CalendarEmpty</title>
    <desc>Created with Sketch.</desc>
    <defs></defs>
    <g id="Page-1" stroke="none" stroke-width="1" fill="none" fill-rule="evenodd">
        <path d="M26.92,294.9 L21.3,302.42 L21.3,309 L19.24,309 L19.24,302.42 L13.62,294.9 L15.98,294.9 L20.28,300.72 L24.58,294.9 L26.92,294.9 Z M27.95,308.52 C27.2233297,308.106665 26.6633353,307.51667 26.27,306.75 C25.8766647,305.983329 25.68,305.093338 25.68,304.08 C25.68,303.053328 25.8766647,302.15667 26.27,301.39 C26.6633353,300.623329 27.2233297,300.033335 27.95,299.62 C28.6766703,299.206665 29.5199952,299 30.48,299 C31.4400048,299 32.2833297,299.206665 33.01,299.62 C33.7366703,300.033335 34.2966647,300.623329 34.69,301.39 C35.0833353,302.15667 35.28,303.053328 35.28,304.08 C35.28,305.093338 35.0833353,305.983329 34.69,306.75 C34.2966647,307.51667 33.7366703,308.106665 33.01,308.52 C32.2833297,308.933335 31.4400048,309.14 30.48,309.14 C29.5199952,309.14 28.6766703,308.933335 27.95,308.52 Z M32.53,306.66 C33.0033357,306.07333 33.24,305.213339 33.24,304.08 C33.24,302.959994 33.0000024,302.103336 32.52,301.51 C32.0399976,300.916664 31.3600044,300.62 30.48,300.62 C29.5999956,300.62 28.9200024,300.916664 28.44,301.51 C27.9599976,302.103336 27.72,302.959994 27.72,304.08 C27.72,305.213339 27.9566643,306.07333 28.43,306.66 C28.9033357,307.24667 29.5866622,307.54 30.48,307.54 C31.3733378,307.54 32.0566643,307.24667 32.53,306.66 Z M46.08,299.24 L46.08,309 L44.12,309 L44.12,307.42 C43.8133318,307.980003 43.3900027,308.406665 42.85,308.7 C42.3099973,308.993335 41.70667,309.14 41.04,309.14 C38.6666548,309.14 37.48,307.833346 37.48,305.22 L37.48,299.24 L39.5,299.24 L39.5,305.2 C39.5,305.986671 39.6599984,306.566665 39.98,306.94 C40.3000016,307.313335 40.79333,307.5 41.46,307.5 C42.2466706,307.5 42.8766643,307.246669 43.35,306.74 C43.8233357,306.233331 44.06,305.560004 44.06,304.72 L44.06,299.24 L46.08,299.24 Z M62.94,302.94 L62.94,309 L60.92,309 L60.92,303.04 C60.92,302.213329 60.7566683,301.606669 60.43,301.22 C60.1033317,300.833331 59.5933368,300.64 58.9,300.64 C58.0866626,300.64 57.4333358,300.893331 56.94,301.4 C56.4466642,301.906669 56.2,302.586662 56.2,303.44 L56.2,309 L54.18,309 L54.18,294.9 L56.2,294.9 L56.2,300.72 C56.533335,300.159997 56.9799972,299.733335 57.54,299.44 C58.1000028,299.146665 58.7333298,299 59.44,299 C61.773345,299 62.94,300.31332 62.94,302.94 Z M72.69,299.98 C73.3233365,300.633337 73.64,301.62666 73.64,302.96 L73.64,309 L71.7,309 L71.7,307.38 C71.4466654,307.953336 71.0700025,308.389998 70.57,308.69 C70.0699975,308.990001 69.48667,309.14 68.82,309.14 C68.1799968,309.14 67.593336,309.010001 67.06,308.75 C66.526664,308.489999 66.1100015,308.126669 65.81,307.66 C65.5099985,307.193331 65.36,306.673336 65.36,306.1 C65.36,305.39333 65.5433315,304.836669 65.91,304.43 C66.2766685,304.023331 66.8833291,303.733334 67.73,303.56 C68.5766709,303.386666 69.7399926,303.3 71.22,303.3 L71.68,303.3 L71.68,302.72 C71.68,301.97333 71.5233349,301.433335 71.21,301.1 C70.8966651,300.766665 70.3866702,300.6 69.68,300.6 C68.5733278,300.6 67.4666722,300.939997 66.36,301.62 L65.76,300.2 C66.2800026,299.839998 66.9099963,299.550001 67.65,299.33 C68.3900037,299.109999 69.0999966,299 69.78,299 C71.0866732,299 72.0566635,299.326663 72.69,299.98 Z M70.98,306.89 C71.446669,306.389997 71.68,305.746671 71.68,304.96 L71.68,304.44 L71.32,304.44 C70.2799948,304.44 69.4800028,304.486666 68.92,304.58 C68.3599972,304.673334 67.9600012,304.829999 67.72,305.05 C67.4799988,305.270001 67.36,305.586665 67.36,306 C67.36,306.466669 67.5299983,306.856665 67.87,307.17 C68.2100017,307.483335 68.646664,307.64 69.18,307.64 C69.913337,307.64 70.513331,307.390002 70.98,306.89 Z M83.32,299.26 L85.34,299.26 L81.1,309 L79.28,309 L75.08,299.26 L77.2,299.26 L80.24,306.72 L83.32,299.26 Z M95.02,304.46 L88.12,304.46 C88.2666674,306.526677 89.2933238,307.56 91.2,307.56 C92.3200056,307.56 93.3333288,307.193337 94.24,306.46 L94.86,307.88 C94.4066644,308.266669 93.84667,308.573332 93.18,308.8 C92.51333,309.026668 91.8333368,309.14 91.14,309.14 C89.5799922,309.14 88.3500045,308.693338 87.45,307.8 C86.5499955,306.906662 86.1,305.673341 86.1,304.1 C86.1,303.099995 86.2966647,302.213337 86.69,301.44 C87.0833353,300.666663 87.6366631,300.066669 88.35,299.64 C89.0633369,299.213331 89.8733288,299 90.78,299 C92.1000066,299 93.1366629,299.426662 93.89,300.28 C94.6433371,301.133338 95.02,302.313326 95.02,303.82 L95.02,304.46 Z M88.97,301.21 C88.5099977,301.696669 88.2333338,302.393329 88.14,303.3 L93.28,303.3 C93.2399998,302.393329 93.0100021,301.696669 92.59,301.21 C92.1699979,300.723331 91.5800038,300.48 90.82,300.48 C90.0466628,300.48 89.4300023,300.723331 88.97,301.21 Z M106,302.94 L106,309 L103.98,309 L103.98,303.04 C103.98,302.213329 103.816668,301.606669 103.49,301.22 C103.163332,300.833331 102.653337,300.64 101.96,300.64 C101.146663,300.64 100.493336,300.893331 100,301.4 C99.5066642,301.906669 99.26,302.586662 99.26,303.44 L99.26,309 L97.24,309 L97.24,299.24 L99.22,299.24 L99.22,300.8 C99.5400016,300.21333 99.9866638,299.766668 100.56,299.46 C101.133336,299.153332 101.779996,299 102.5,299 C104.833345,299 106,300.31332 106,302.94 Z M110.56,294.9 L110.56,296.52 C110.56,297.14667 110.456668,297.713331 110.25,298.22 C110.043332,298.726669 109.693336,299.233331 109.2,299.74 L108.32,299.04 C108.880003,298.439997 109.2,297.853336 109.28,297.28 L108.18,297.28 L108.18,294.9 L110.56,294.9 Z M118.78,307.52 L118.68,309.06 C118.346665,309.113334 118.000002,309.14 117.64,309.14 C116.373327,309.14 115.430003,308.830003 114.81,308.21 C114.189997,307.589997 113.88,306.693339 113.88,305.52 L113.88,300.8 L111.98,300.8 L111.98,299.24 L113.88,299.24 L113.88,296.3 L115.9,296.3 L115.9,299.24 L118.58,299.24 L118.58,300.8 L115.9,300.8 L115.9,305.44 C115.9,306.866674 116.559993,307.58 117.88,307.58 C118.186668,307.58 118.486665,307.56 118.78,307.52 Z M132.59,299.98 C133.223337,300.633337 133.54,301.62666 133.54,302.96 L133.54,309 L131.6,309 L131.6,307.38 C131.346665,307.953336 130.970003,308.389998 130.47,308.69 C129.969998,308.990001 129.38667,309.14 128.72,309.14 C128.079997,309.14 127.493336,309.010001 126.96,308.75 C126.426664,308.489999 126.010002,308.126669 125.71,307.66 C125.409999,307.193331 125.26,306.673336 125.26,306.1 C125.26,305.39333 125.443332,304.836669 125.81,304.43 C126.176669,304.023331 126.783329,303.733334 127.63,303.56 C128.476671,303.386666 129.639993,303.3 131.12,303.3 L131.58,303.3 L131.58,302.72 C131.58,301.97333 131.423335,301.433335 131.11,301.1 C130.796665,300.766665 130.28667,300.6 129.58,300.6 C128.473328,300.6 127.366672,300.939997 126.26,301.62 L125.66,300.2 C126.180003,299.839998 126.809996,299.550001 127.55,299.33 C128.290004,299.109999 128.999997,299 129.68,299 C130.986673,299 131.956664,299.326663 132.59,299.98 Z M130.88,306.89 C131.346669,306.389997 131.58,305.746671 131.58,304.96 L131.58,304.44 L131.22,304.44 C130.179995,304.44 129.380003,304.486666 128.82,304.58 C128.259997,304.673334 127.860001,304.829999 127.62,305.05 C127.379999,305.270001 127.26,305.586665 127.26,306 C127.26,306.466669 127.429998,306.856665 127.77,307.17 C128.110002,307.483335 128.546664,307.64 129.08,307.64 C129.813337,307.64 130.413331,307.390002 130.88,306.89 Z M145.3,294.9 L145.3,309 L143.3,309 L143.3,307.32 C143.006665,307.90667 142.580003,308.356665 142.02,308.67 C141.459997,308.983335 140.813337,309.14 140.08,309.14 C139.239996,309.14 138.490003,308.926669 137.83,308.5 C137.169997,308.073331 136.656668,307.473337 136.29,306.7 C135.923332,305.926663 135.74,305.040005 135.74,304.04 C135.74,303.026662 135.923332,302.140004 136.29,301.38 C136.656668,300.619996 137.166663,300.033335 137.82,299.62 C138.473337,299.206665 139.226662,299 140.08,299 C140.813337,299 141.456664,299.156665 142.01,299.47 C142.563336,299.783335 142.986665,300.226664 143.28,300.8 L143.28,294.9 L145.3,294.9 Z M142.59,306.64 C143.063336,306.039997 143.3,305.186672 143.3,304.08 C143.3,302.973328 143.063336,302.120003 142.59,301.52 C142.116664,300.919997 141.440004,300.62 140.56,300.62 C139.679996,300.62 138.996669,300.916664 138.51,301.51 C138.023331,302.103336 137.78,302.946661 137.78,304.04 C137.78,305.133339 138.026664,305.989997 138.52,306.61 C139.013336,307.230003 139.693329,307.54 140.56,307.54 C141.440004,307.54 142.116664,307.240003 142.59,306.64 Z M157.12,294.9 L157.12,309 L155.12,309 L155.12,307.32 C154.826665,307.90667 154.400003,308.356665 153.84,308.67 C153.279997,308.983335 152.633337,309.14 151.9,309.14 C151.059996,309.14 150.310003,308.926669 149.65,308.5 C148.989997,308.073331 148.476668,307.473337 148.11,306.7 C147.743331,305.926663 147.56,305.040005 147.56,304.04 C147.56,303.026662 147.743331,302.140004 148.11,301.38 C148.476668,300.619996 148.986663,300.033335 149.64,299.62 C150.293337,299.206665 151.046662,299 151.9,299 C152.633337,299 153.276664,299.156665 153.83,299.47 C154.383336,299.783335 154.806665,300.226664 155.1,300.8 L155.1,294.9 L157.12,294.9 Z M154.41,306.64 C154.883336,306.039997 155.12,305.186672 155.12,304.08 C155.12,302.973328 154.883336,302.120003 154.41,301.52 C153.936664,300.919997 153.260004,300.62 152.38,300.62 C151.499996,300.62 150.816669,300.916664 150.33,301.51 C149.843331,302.103336 149.6,302.946661 149.6,304.04 C149.6,305.133339 149.846664,305.989997 150.34,306.61 C150.833336,307.230003 151.513329,307.54 152.38,307.54 C153.260004,307.54 153.936664,307.240003 154.41,306.64 Z M168.3,304.46 L161.4,304.46 C161.546667,306.526677 162.573324,307.56 164.48,307.56 C165.600006,307.56 166.613329,307.193337 167.52,306.46 L168.14,307.88 C167.686664,308.266669 167.12667,308.573332 166.46,308.8 C165.79333,309.026668 165.113337,309.14 164.42,309.14 C162.859992,309.14 161.630004,308.693338 160.73,307.8 C159.829995,306.906662 159.38,305.673341 159.38,304.1 C159.38,303.099995 159.576665,302.213337 159.97,301.44 C160.363335,300.666663 160.916663,300.066669 161.63,299.64 C162.343337,299.213331 163.153329,299 164.06,299 C165.380007,299 166.416663,299.426662 167.17,300.28 C167.923337,301.133338 168.3,302.313326 168.3,303.82 L168.3,304.46 Z M162.25,301.21 C161.789998,301.696669 161.513334,302.393329 161.42,303.3 L166.56,303.3 C166.52,302.393329 166.290002,301.696669 165.87,301.21 C165.449998,300.723331 164.860004,300.48 164.1,300.48 C163.326663,300.48 162.710002,300.723331 162.25,301.21 Z M179.52,294.9 L179.52,309 L177.52,309 L177.52,307.32 C177.226665,307.90667 176.800003,308.356665 176.24,308.67 C175.679997,308.983335 175.033337,309.14 174.3,309.14 C173.459996,309.14 172.710003,308.926669 172.05,308.5 C171.389997,308.073331 170.876668,307.473337 170.51,306.7 C170.143332,305.926663 169.96,305.040005 169.96,304.04 C169.96,303.026662 170.143332,302.140004 170.51,301.38 C170.876668,300.619996 171.386663,300.033335 172.04,299.62 C172.693337,299.206665 173.446662,299 174.3,299 C175.033337,299 175.676664,299.156665 176.23,299.47 C176.783336,299.783335 177.206665,300.226664 177.5,300.8 L177.5,294.9 L179.52,294.9 Z M176.81,306.64 C177.283336,306.039997 177.52,305.186672 177.52,304.08 C177.52,302.973328 177.283336,302.120003 176.81,301.52 C176.336664,300.919997 175.660004,300.62 174.78,300.62 C173.899996,300.62 173.216669,300.916664 172.73,301.51 C172.243331,302.103336 172,302.946661 172,304.04 C172,305.133339 172.246664,305.989997 172.74,306.61 C173.233336,307.230003 173.913329,307.54 174.78,307.54 C175.660004,307.54 176.336664,307.240003 176.81,306.64 Z M194.61,299.98 C195.243337,300.633337 195.56,301.62666 195.56,302.96 L195.56,309 L193.62,309 L193.62,307.38 C193.366665,307.953336 192.990003,308.389998 192.49,308.69 C191.989998,308.990001 191.40667,309.14 190.74,309.14 C190.099997,309.14 189.513336,309.010001 188.98,308.75 C188.446664,308.489999 188.030002,308.126669 187.73,307.66 C187.429999,307.193331 187.28,306.673336 187.28,306.1 C187.28,305.39333 187.463332,304.836669 187.83,304.43 C188.196669,304.023331 188.803329,303.733334 189.65,303.56 C190.496671,303.386666 191.659993,303.3 193.14,303.3 L193.6,303.3 L193.6,302.72 C193.6,301.97333 193.443335,301.433335 193.13,301.1 C192.816665,300.766665 192.30667,300.6 191.6,300.6 C190.493328,300.6 189.386672,300.939997 188.28,301.62 L187.68,300.2 C188.200003,299.839998 188.829996,299.550001 189.57,299.33 C190.310004,299.109999 191.019997,299 191.7,299 C193.006673,299 193.976664,299.326663 194.61,299.98 Z M192.9,306.89 C193.366669,306.389997 193.6,305.746671 193.6,304.96 L193.6,304.44 L193.24,304.44 C192.199995,304.44 191.400003,304.486666 190.84,304.58 C190.279997,304.673334 189.880001,304.829999 189.64,305.05 C189.399999,305.270001 189.28,305.586665 189.28,306 C189.28,306.466669 189.449998,306.856665 189.79,307.17 C190.130002,307.483335 190.566664,307.64 191.1,307.64 C191.833337,307.64 192.433331,307.390002 192.9,306.89 Z M207.08,302.94 L207.08,309 L205.06,309 L205.06,303.04 C205.06,302.213329 204.896668,301.606669 204.57,301.22 C204.243332,300.833331 203.733337,300.64 203.04,300.64 C202.226663,300.64 201.573336,300.893331 201.08,301.4 C200.586664,301.906669 200.34,302.586662 200.34,303.44 L200.34,309 L198.32,309 L198.32,299.24 L200.3,299.24 L200.3,300.8 C200.620002,300.21333 201.066664,299.766668 201.64,299.46 C202.213336,299.153332 202.859996,299 203.58,299 C205.913345,299 207.08,300.31332 207.08,302.94 Z M216.76,299.26 L218.78,299.26 L212.96,312.6 L210.92,312.6 L212.62,308.76 L208.52,299.26 L210.64,299.26 L213.68,306.72 L216.76,299.26 Z M65.97,335.52 C65.2433297,335.106665 64.6833353,334.523337 64.29,333.77 C63.8966647,333.016663 63.7,332.133338 63.7,331.12 C63.7,330.106662 63.9033313,329.213337 64.31,328.44 C64.7166687,327.666663 65.2899963,327.066669 66.03,326.64 C66.7700037,326.213331 67.6333284,326 68.62,326 C69.3000034,326 69.9566635,326.113332 70.59,326.34 C71.2233365,326.566668 71.739998,326.873331 72.14,327.26 L71.52,328.7 C70.6399956,327.979996 69.7266714,327.62 68.78,327.62 C67.846662,327.62 67.1166693,327.92333 66.59,328.53 C66.0633307,329.13667 65.8,329.993328 65.8,331.1 C65.8,332.193339 66.0599974,333.036664 66.58,333.63 C67.1000026,334.223336 67.8333286,334.52 68.78,334.52 C69.7266714,334.52 70.6399956,334.160004 71.52,333.44 L72.14,334.9 C71.7133312,335.286669 71.1800032,335.589999 70.54,335.81 C69.8999968,336.030001 69.2333368,336.14 68.54,336.14 C67.5533284,336.14 66.6966703,335.933335 65.97,335.52 Z M75.63,335.52 C74.9033297,335.106665 74.3433353,334.51667 73.95,333.75 C73.5566647,332.983329 73.36,332.093338 73.36,331.08 C73.36,330.053328 73.5566647,329.15667 73.95,328.39 C74.3433353,327.623329 74.9033297,327.033335 75.63,326.62 C76.3566703,326.206665 77.1999952,326 78.16,326 C79.1200048,326 79.9633297,326.206665 80.69,326.62 C81.4166703,327.033335 81.9766647,327.623329 82.37,328.39 C82.7633353,329.15667 82.96,330.053328 82.96,331.08 C82.96,332.093338 82.7633353,332.983329 82.37,333.75 C81.9766647,334.51667 81.4166703,335.106665 80.69,335.52 C79.9633297,335.933335 79.1200048,336.14 78.16,336.14 C77.1999952,336.14 76.3566703,335.933335 75.63,335.52 Z M80.21,333.66 C80.6833357,333.07333 80.92,332.213339 80.92,331.08 C80.92,329.959994 80.6800024,329.103336 80.2,328.51 C79.7199976,327.916664 79.0400044,327.62 78.16,327.62 C77.2799956,327.62 76.6000024,327.916664 76.12,328.51 C75.6399976,329.103336 75.4,329.959994 75.4,331.08 C75.4,332.213339 75.6366643,333.07333 76.11,333.66 C76.5833357,334.24667 77.2666622,334.54 78.16,334.54 C79.0533378,334.54 79.7366643,334.24667 80.21,333.66 Z M93.76,326.24 L93.76,336 L91.8,336 L91.8,334.42 C91.4933318,334.980003 91.0700027,335.406665 90.53,335.7 C89.9899973,335.993335 89.38667,336.14 88.72,336.14 C86.3466548,336.14 85.16,334.833346 85.16,332.22 L85.16,326.24 L87.18,326.24 L87.18,332.2 C87.18,332.986671 87.3399984,333.566665 87.66,333.94 C87.9800016,334.313335 88.47333,334.5 89.14,334.5 C89.9266706,334.5 90.5566643,334.246669 91.03,333.74 C91.5033357,333.233331 91.74,332.560004 91.74,331.72 L91.74,326.24 L93.76,326.24 Z M102.52,327.7 L101.3,327.82 C100.339995,327.913334 99.6500021,328.206664 99.23,328.7 C98.8099979,329.193336 98.6,329.819996 98.6,330.58 L98.6,336 L96.58,336 L96.58,326.24 L98.54,326.24 L98.54,327.94 C99.0600026,326.793328 100.119992,326.160001 101.72,326.04 L102.38,326 L102.52,327.7 Z M103.18,334.9 L103.8,333.44 C104.800005,334.213337 105.96666,334.6 107.3,334.6 C107.953337,334.6 108.453332,334.490001 108.8,334.27 C109.146668,334.049999 109.32,333.740002 109.32,333.34 C109.32,332.993332 109.203335,332.720001 108.97,332.52 C108.736665,332.319999 108.333336,332.153334 107.76,332.02 L106.14,331.66 C105.273329,331.459999 104.620002,331.133336 104.18,330.68 C103.739998,330.226664 103.52,329.653337 103.52,328.96 C103.52,328.079996 103.876663,327.366669 104.59,326.82 C105.303337,326.273331 106.239994,326 107.4,326 C108.093337,326 108.75333,326.109999 109.38,326.33 C110.00667,326.550001 110.546664,326.859998 111,327.26 L110.38,328.68 C109.419995,327.919996 108.426672,327.54 107.4,327.54 C106.786664,327.54 106.303335,327.659999 105.95,327.9 C105.596665,328.140001 105.42,328.466665 105.42,328.88 C105.42,329.213335 105.529999,329.483332 105.75,329.69 C105.970001,329.896668 106.319998,330.053333 106.8,330.16 L108.46,330.54 C109.406671,330.753334 110.099998,331.083331 110.54,331.53 C110.980002,331.976669 111.2,332.559996 111.2,333.28 C111.2,334.160004 110.843337,334.856664 110.13,335.37 C109.416663,335.883336 108.453339,336.14 107.24,336.14 C105.546658,336.14 104.193338,335.726671 103.18,334.9 Z M121.8,331.46 L114.9,331.46 C115.046667,333.526677 116.073324,334.56 117.98,334.56 C119.100006,334.56 120.113329,334.193337 121.02,333.46 L121.64,334.88 C121.186664,335.266669 120.62667,335.573332 119.96,335.8 C119.29333,336.026668 118.613337,336.14 117.92,336.14 C116.359992,336.14 115.130004,335.693338 114.23,334.8 C113.329995,333.906662 112.88,332.673341 112.88,331.1 C112.88,330.099995 113.076665,329.213337 113.47,328.44 C113.863335,327.666663 114.416663,327.066669 115.13,326.64 C115.843337,326.213331 116.653329,326 117.56,326 C118.880007,326 119.916663,326.426662 120.67,327.28 C121.423337,328.133338 121.8,329.313326 121.8,330.82 L121.8,331.46 Z M115.75,328.21 C115.289998,328.696669 115.013334,329.393329 114.92,330.3 L120.06,330.3 C120.02,329.393329 119.790002,328.696669 119.37,328.21 C118.949998,327.723331 118.360004,327.48 117.6,327.48 C116.826663,327.48 116.210002,327.723331 115.75,328.21 Z M123.4,334.9 L124.02,333.44 C125.020005,334.213337 126.18666,334.6 127.52,334.6 C128.173337,334.6 128.673332,334.490001 129.02,334.27 C129.366668,334.049999 129.54,333.740002 129.54,333.34 C129.54,332.993332 129.423335,332.720001 129.19,332.52 C128.956665,332.319999 128.553336,332.153334 127.98,332.02 L126.36,331.66 C125.493329,331.459999 124.840002,331.133336 124.4,330.68 C123.959998,330.226664 123.74,329.653337 123.74,328.96 C123.74,328.079996 124.096663,327.366669 124.81,326.82 C125.523337,326.273331 126.459994,326 127.62,326 C128.313337,326 128.97333,326.109999 129.6,326.33 C130.22667,326.550001 130.766664,326.859998 131.22,327.26 L130.6,328.68 C129.639995,327.919996 128.646672,327.54 127.62,327.54 C127.006664,327.54 126.523335,327.659999 126.17,327.9 C125.816665,328.140001 125.64,328.466665 125.64,328.88 C125.64,329.213335 125.749999,329.483332 125.97,329.69 C126.190001,329.896668 126.539998,330.053333 127.02,330.16 L128.68,330.54 C129.626671,330.753334 130.319998,331.083331 130.76,331.53 C131.200002,331.976669 131.42,332.559996 131.42,333.28 C131.42,334.160004 131.063337,334.856664 130.35,335.37 C129.636663,335.883336 128.673339,336.14 127.46,336.14 C125.766658,336.14 124.413338,335.726671 123.4,334.9 Z M145.86,326.26 L147.88,326.26 L142.06,339.6 L140.02,339.6 L141.72,335.76 L137.62,326.26 L139.74,326.26 L142.78,333.72 L145.86,326.26 Z M157.56,331.46 L150.66,331.46 C150.806667,333.526677 151.833324,334.56 153.74,334.56 C154.860006,334.56 155.873329,334.193337 156.78,333.46 L157.4,334.88 C156.946664,335.266669 156.38667,335.573332 155.72,335.8 C155.05333,336.026668 154.373337,336.14 153.68,336.14 C152.119992,336.14 150.890004,335.693338 149.99,334.8 C149.089995,333.906662 148.64,332.673341 148.64,331.1 C148.64,330.099995 148.836665,329.213337 149.23,328.44 C149.623335,327.666663 150.176663,327.066669 150.89,326.64 C151.603337,326.213331 152.413329,326 153.32,326 C154.640007,326 155.676663,326.426662 156.43,327.28 C157.183337,328.133338 157.56,329.313326 157.56,330.82 L157.56,331.46 Z M151.51,328.21 C151.049998,328.696669 150.773334,329.393329 150.68,330.3 L155.82,330.3 C155.78,329.393329 155.550002,328.696669 155.13,328.21 C154.709998,327.723331 154.120004,327.48 153.36,327.48 C152.586663,327.48 151.970002,327.723331 151.51,328.21 Z M165.2,334.52 L165.1,336.06 C164.766665,336.113334 164.420002,336.14 164.06,336.14 C162.793327,336.14 161.850003,335.830003 161.23,335.21 C160.609997,334.589997 160.3,333.693339 160.3,332.52 L160.3,327.8 L158.4,327.8 L158.4,326.24 L160.3,326.24 L160.3,323.3 L162.32,323.3 L162.32,326.24 L165,326.24 L165,327.8 L162.32,327.8 L162.32,332.44 C162.32,333.866674 162.979993,334.58 164.3,334.58 C164.606668,334.58 164.906665,334.56 165.2,334.52 Z M167.14,332.04 L166.5,321.9 L169,321.9 L168.36,332.04 L167.14,332.04 Z M166.56,333.62 L168.94,333.62 L168.94,336 L166.56,336 L166.56,333.62 Z" id="You-haven’t-added-an" fill="#000000" opacity="0.4"></path>
        <g id="Group-2" opacity="0.3" transform="translate(24.000000, 88.000000)" fill="#000000">
            <g id="Group" transform="translate(91.000000, 83.000000) rotate(-5.000000) translate(-91.000000, -83.000000) translate(54.000000, 43.000000)">
                <g id="calendar-o" fill-rule="nonzero">
                    <path d="M5.69230769,74.2857143 L68.3076923,74.2857143 L68.3076923,28.5714286 L5.69230769,28.5714286 L5.69230769,74.2857143 Z M22.7692308,20 L22.7692308,7.14285714 C22.7692308,6.34 22.1459231,5.71428571 21.3461538,5.71428571 L18.5,5.71428571 C17.7002308,5.71428571 17.0769231,6.34 17.0769231,7.14285714 L17.0769231,20 C17.0769231,20.8028571 17.7002308,21.4285714 18.5,21.4285714 L21.3461538,21.4285714 C22.1459231,21.4285714 22.7692308,20.8028571 22.7692308,20 Z M56.9230769,20 L56.9230769,7.14285714 C56.9230769,6.34 56.2997692,5.71428571 55.5,5.71428571 L52.6538462,5.71428571 C51.8540769,5.71428571 51.2307692,6.34 51.2307692,7.14285714 L51.2307692,20 C51.2307692,20.8028571 51.8540769,21.4285714 52.6538462,21.4285714 L55.5,21.4285714 C56.2997692,21.4285714 56.9230769,20.8028571 56.9230769,20 Z M74,17.1428571 L74,74.2857143 C74,77.4114286 71.4213846,80 68.3076923,80 L5.69230769,80 C2.57861538,80 0,77.4114286 0,74.2857143 L0,17.1428571 C0,14.0171429 2.57861538,11.4285714 5.69230769,11.4285714 L11.3846154,11.4285714 L11.3846154,7.14285714 C11.3846154,3.21428571 14.5865385,0 18.5,0 L21.3461538,0 C25.2596154,0 28.4615385,3.21428571 28.4615385,7.14285714 L28.4615385,11.4285714 L45.5384615,11.4285714 L45.5384615,7.14285714 C45.5384615,3.21428571 48.7403846,0 52.6538462,0 L55.5,0 C59.4134615,0 62.6153846,3.21428571 62.6153846,7.14285714 L62.6153846,11.4285714 L68.3076923,11.4285714 C71.4213846,11.4285714 74,14.0171429 74,17.1428571 Z" id="Shape"></path>
                </g>
                <circle id="Oval-Copy-2" cx="36" cy="63" r="7"></circle>
                <ellipse id="Oval-Copy" cx="46.5" cy="42" rx="4.5" ry="6"></ellipse>
                <ellipse id="Oval-Copy-3" cx="25.5" cy="42" rx="4.5" ry="6"></ellipse>
            </g>
            <path d="M140.79899,5.79898987 C140.79899,5.79898987 146.656113,11.3814118 154.037072,11.3814118 C161.418031,11.3814118 168.79899,5.79898987 168.79899,5.79898987 C168.79899,5.79898987 163.216568,11.6255095 163.216568,19.0166696 C163.216568,26.4078298 168.79899,33.7989899 168.79899,33.7989899 C168.79899,33.7989899 160.034379,28.2165679 153.622583,28.2165679 C147.210786,28.2165679 140.79899,33.7989899 140.79899,33.7989899 C140.79899,33.7989899 146.381412,26.766202 146.381412,19.7771313 C146.381412,12.7880606 140.79899,5.79898987 140.79899,5.79898987 Z" id="Rectangle" transform="translate(154.798990, 19.798990) rotate(45.000000) translate(-154.798990, -19.798990) "></path>
            <path d="M16.7989899,148.79899 C16.7989899,148.79899 22.6561134,154.381412 30.0370722,154.381412 C37.4180311,154.381412 44.7989899,148.79899 44.7989899,148.79899 C44.7989899,148.79899 39.2165679,154.62551 39.2165679,162.01667 C39.2165679,169.40783 44.7989899,176.79899 44.7989899,176.79899 C44.7989899,176.79899 36.0343789,171.216568 29.6225826,171.216568 C23.2107862,171.216568 16.7989899,176.79899 16.7989899,176.79899 C16.7989899,176.79899 22.3814118,169.766202 22.3814118,162.777131 C22.3814118,155.788061 16.7989899,148.79899 16.7989899,148.79899 Z" id="Rectangle-Copy-3" transform="translate(30.798990, 162.798990) rotate(45.000000) translate(-30.798990, -162.798990) "></path>
            <path d="M3.10481605,118.104816 C3.10481605,118.104816 6.24075725,121.09368 10.1925695,121.09368 C14.1443818,121.09368 18.0961941,118.104816 18.0961941,118.104816 C18.0961941,118.104816 15.1073299,121.224372 15.1073299,125.181646 C15.1073299,129.13892 18.0961941,133.096194 18.0961941,133.096194 C18.0961941,133.096194 13.4035656,130.10733 9.97064911,130.10733 C6.53773258,130.10733 3.10481605,133.096194 3.10481605,133.096194 C3.10481605,133.096194 6.09368026,129.330795 6.09368026,125.588802 C6.09368026,121.846809 3.10481605,118.104816 3.10481605,118.104816 Z" id="Rectangle-Copy" transform="translate(10.600505, 125.600505) rotate(45.000000) translate(-10.600505, -125.600505) "></path>
            <path d="M141.255204,137.255204 C141.255204,137.255204 143.533016,139.426185 146.403441,139.426185 C149.273866,139.426185 152.144291,137.255204 152.144291,137.255204 C152.144291,137.255204 149.97331,139.521114 149.97331,142.395506 C149.97331,145.269899 152.144291,148.144291 152.144291,148.144291 C152.144291,148.144291 148.735769,145.97331 146.242247,145.97331 C143.748726,145.97331 141.255204,148.144291 141.255204,148.144291 C141.255204,148.144291 143.426185,145.409268 143.426185,142.691247 C143.426185,139.973225 141.255204,137.255204 141.255204,137.255204 Z" id="Rectangle-Copy-4" transform="translate(146.699747, 142.699747) rotate(45.000000) translate(-146.699747, -142.699747) "></path>
            <path d="M23.2552038,22.2552038 C23.2552038,22.2552038 25.5330156,24.4261852 28.4034408,24.4261852 C31.2738659,24.4261852 34.1442911,22.2552038 34.1442911,22.2552038 C34.1442911,22.2552038 31.9733097,24.5211139 31.9733097,27.3955063 C31.9733097,30.2698987 34.1442911,33.1442911 34.1442911,33.1442911 C34.1442911,33.1442911 30.7357692,30.9733097 28.2422474,30.9733097 C25.7487256,30.9733097 23.2552038,33.1442911 23.2552038,33.1442911 C23.2552038,33.1442911 25.4261852,30.4092682 25.4261852,27.6912468 C25.4261852,24.9732253 23.2552038,22.2552038 23.2552038,22.2552038 Z" id="Rectangle-Copy-5" transform="translate(28.699747, 27.699747) rotate(45.000000) translate(-28.699747, -27.699747) "></path>
            <path d="M168.104816,43.104816 C168.104816,43.104816 171.240757,46.0936803 175.19257,46.0936803 C179.144382,46.0936803 183.096194,43.104816 183.096194,43.104816 C183.096194,43.104816 180.10733,46.2243717 180.10733,50.1816458 C180.10733,54.13892 183.096194,58.0961941 183.096194,58.0961941 C183.096194,58.0961941 178.403566,55.1073299 174.970649,55.1073299 C171.537733,55.1073299 168.104816,58.0961941 168.104816,58.0961941 C168.104816,58.0961941 171.09368,54.3307948 171.09368,50.5888019 C171.09368,46.846809 168.104816,43.104816 168.104816,43.104816 Z" id="Rectangle-Copy-2" transform="translate(175.600505, 50.600505) rotate(45.000000) translate(-175.600505, -50.600505) "></path>
        </g>
    </g>
</svg>