<svg width="27" height="27" viewBox="0 0 27 27" version="1.1" xmlns="http://www.w3.org/2000/svg" xmlns:xlink="http://www.w3.org/1999/xlink" xmlns:figma="http://www.figma.com/figma/ns">
<title>SearchIcon</title>
<desc>Created using Figma</desc>
<g id="Canvas" transform="translate(629 1293)" figma:type="canvas">
<g id="SearchIcon" opacity="0.8" figma:type="vector">
<use xlink:href="#path0_stroke" transform="matrix(-1 0 0 1 -603 -1292)" fill="#000000" fill-opacity="0.5"/>
</g>
</g>
<defs>
<path id="path0_stroke" d="M 17 17.1414L 16.3 16.4273L 17 17.1414ZM 10 19C 5.02944 19 1 14.9706 1 10L -1 10C -1 16.0751 3.92487 21 10 21L 10 19ZM 1 10C 1 5.02944 5.02944 1 10 1L 10 -1C 3.92487 -1 -1 3.92487 -1 10L 1 10ZM 10 1C 14.9706 1 19 5.02944 19 10L 21 10C 21 3.92487 16.0751 -1 10 -1L 10 1ZM 19 10C 19 12.5179 17.9674 14.7927 16.3 16.4273L 17.7 17.8555C 19.7354 15.8603 21 13.0769 21 10L 19 10ZM 16.3 16.4273C 14.6756 18.0198 12.4533 19 10 19L 10 21C 12.9977 21 15.7169 19.7996 17.7 17.8555L 16.3 16.4273ZM 16.2929 17.8485L 24.2929 25.8485L 25.7071 24.4343L 17.7071 16.4343L 16.2929 17.8485Z"/>
</defs>
</svg>
